<?xml version="1.0" encoding="utf-8"?>
<!-- Generator: Adobe Illustrator 16.0.0, SVG Export Plug-In . SVG Version: 6.00 Build 0)  -->
<!DOCTYPE svg PUBLIC "-//W3C//DTD SVG 1.1//EN" "http://www.w3.org/Graphics/SVG/1.1/DTD/svg11.dtd">
<svg version="1.1" id="Layer_1" xmlns="http://www.w3.org/2000/svg" xmlns:xlink="http://www.w3.org/1999/xlink" x="0px" y="0px"
	 width="32px" height="32px" viewBox="0 0 32 32" enable-background="new 0 0 32 32" xml:space="preserve">
<path fill="#5B5C5F" d="M9.52,22.6l-1.72-1.721c-5.85-0.459-5.964,2.867-5.85,6.422C2.064,30.857,0,31.43,0,31.43
	c0.196,0.047,0.382,0.08,0.571,0.119L9.52,22.6z"/>
<g>
	<polyline fill="#FACB1B" points="16.922,22.207 16.92,22.201 13.419,18.699 9.52,22.6 10.839,23.918 14.223,23.918 16.631,22.6 	
		"/>
	<polygon fill="#FBE158" points="9.52,15.488 8.201,17.896 8.201,21.279 9.52,22.6 13.419,18.699 9.914,15.194 	"/>
	<polygon fill="#84462D" points="16.92,22.201 16.922,22.207 32,1.954 31.197,0.921 13.419,18.699 	"/>
	<polygon fill="#9B6045" points="13.419,18.699 31.197,0.921 30.165,0.119 9.914,15.194 	"/>
	<path fill="#3E3E3F" d="M9.52,22.6l-8.947,8.947c10.769,2.176,10.61-7.285,10.61-7.285L9.52,22.6z"/>
</g>
</svg>
