<?xml version="1.0" encoding="utf-8"?>
<!-- Generator: Adobe Illustrator 16.0.0, SVG Export Plug-In . SVG Version: 6.00 Build 0)  -->
<!DOCTYPE svg PUBLIC "-//W3C//DTD SVG 1.1//EN" "http://www.w3.org/Graphics/SVG/1.1/DTD/svg11.dtd">
<svg version="1.1" id="Layer_1" xmlns="http://www.w3.org/2000/svg" xmlns:xlink="http://www.w3.org/1999/xlink" x="0px" y="0px"
	 width="32px" height="32px" viewBox="0 0 32 32" enable-background="new 0 0 32 32" xml:space="preserve">
<g>
	<polygon fill="#FFFFFF" points="3.853,20.852 0.998,26.876 3.051,28.93 7.491,24.489 	"/>
	<path fill="#5B5C5F" d="M22.904,0L20.93,1.976h-0.002H13.75L7.892,7.834l0.007,0.007C7.542,8.196,7.322,8.689,7.322,9.232
		c0,1.088,0.881,1.969,1.968,1.969s1.969-0.881,1.969-1.969c0-0.513-0.202-0.978-0.523-1.327L14.941,3.7h4.11h0.154L2.953,19.952
		l4.538,4.537l19.94-19.941L22.904,0z"/>
	<polygon fill="#313233" points="24.535,1.638 26.639,1.88 26.639,0.217 29.201,2.778 27.432,4.548 	"/>
	<polygon fill="#5B5C5F" points="2.366,28.128 0.019,30.475 0.019,32 3.129,28.891 	"/>
	<polygon fill="#3D3F40" points="31.98,9.076 12.029,29.027 7.492,24.49 27.432,4.548 	"/>
	<polygon fill="#B6D9D3" points="11.129,28.128 5.104,30.982 3.051,28.93 7.492,24.49 	"/>
	<polygon fill="#21181A" points="30.342,7.446 30.1,5.342 31.764,5.342 29.201,2.778 27.432,4.548 	"/>
	<polygon fill="#3D3F40" points="3.892,29.652 1.544,32 0.019,32 3.129,28.891 	"/>
</g>
</svg>
