<?xml version="1.0" encoding="utf-8"?>
<!-- Generator: Adobe Illustrator 16.0.0, SVG Export Plug-In . SVG Version: 6.00 Build 0)  -->
<!DOCTYPE svg PUBLIC "-//W3C//DTD SVG 1.1//EN" "http://www.w3.org/Graphics/SVG/1.1/DTD/svg11.dtd">
<svg version="1.1" id="Layer_1" xmlns="http://www.w3.org/2000/svg" xmlns:xlink="http://www.w3.org/1999/xlink" x="0px" y="0px"
	 width="32px" height="32px" viewBox="0 0 32 32" enable-background="new 0 0 32 32" xml:space="preserve">
<g>
	<g>
		<g>
			<path fill="#F4D0A1" d="M28.009,9.816L9.908,30.28l-5.016,1.034c-0.147-0.701-0.507-1.361-1.081-1.872
				c-0.577-0.51-1.278-0.787-1.989-0.847l0.414-5.105L20.339,3.03L28.009,9.816z"/>
		</g>
	</g>
	<g>
		<g>
			<path fill="#059BBF" d="M27.985,9.795c0.014,0.011,0.018,0.033,0.004,0.047L10.301,29.84c-0.03,0.03-0.074-0.003-0.054-0.039
				c0.554-1.024,0.354-2.329-0.56-3.136c-0.96-0.851-2.375-0.851-3.332-0.054c-0.029,0.023-0.063-0.009-0.043-0.039
				c0.674-1.045,0.5-2.453-0.46-3.303c-0.921-0.813-2.262-0.847-3.212-0.147c-0.03,0.021-0.066-0.014-0.044-0.042L20.319,3.052
				c0.007-0.014,0.029-0.014,0.043-0.002L27.985,9.795z"/>
		</g>
	</g>
	<g>
		<g>
			
				<rect x="19.619" y="4.928" transform="matrix(0.7489 0.6626 -0.6626 0.7489 10.0428 -14.9415)" fill="#FACB1B" width="10.241" height="1.709"/>
		</g>
	</g>
	<g>
		<g>
			<path fill="#F79392" d="M28.736,1.342l-0.073-0.07c-2.102-1.854-5.303-1.658-7.161,0.44L21.47,1.749l7.673,6.787l0.034-0.037
				C31.031,6.401,30.839,3.196,28.736,1.342z"/>
		</g>
	</g>
	<g>
		<g>
			<path fill="#0484AB" d="M27.989,9.839L10.278,29.866c-0.027,0.026-0.068-0.002-0.051-0.039c0.58-1.027,0.38-2.348-0.54-3.162
				c-0.96-0.851-2.369-0.851-3.329-0.061c-0.014,0.014-0.033-0.007-0.019-0.021L24.154,6.449c0.013-0.019,0.033-0.019,0.043-0.004
				l3.788,3.351C27.999,9.807,28.003,9.829,27.989,9.839z"/>
		</g>
	</g>
	<g>
		<g>
			<path fill="#3E3E3F" d="M4.892,31.314L1.55,32l0.273-3.404c0.711,0.06,1.412,0.337,1.989,0.847
				C4.385,29.953,4.745,30.613,4.892,31.314z"/>
		</g>
	</g>
</g>
</svg>
