<?xml version="1.0" encoding="utf-8"?>
<!-- Generator: Adobe Illustrator 16.0.0, SVG Export Plug-In . SVG Version: 6.00 Build 0)  -->
<!DOCTYPE svg PUBLIC "-//W3C//DTD SVG 1.1//EN" "http://www.w3.org/Graphics/SVG/1.1/DTD/svg11.dtd">
<svg version="1.1" id="Layer_1" xmlns="http://www.w3.org/2000/svg" xmlns:xlink="http://www.w3.org/1999/xlink" x="0px" y="0px"
	 width="32px" height="32px" viewBox="0 0 32 32" enable-background="new 0 0 32 32" xml:space="preserve">
<g>
	<polygon fill="#FFFFFF" points="-1824.576,936.985 -1827.901,933.221 -1872.432,933.221 -1875.758,936.985 -1889.305,936.985 
		-1889.305,940.75 -1819.457,940.75 -1819.457,936.985 	"/>
	<polygon fill="#FFFFFF" points="-1847.038,836.076 -1933.643,922.683 -1920.668,935.658 -1915.578,940.75 -1896.934,940.75 
		-1819.471,863.285 	"/>
	<path fill="#FFFFFF" d="M-1915.578,942.662c-0.507,0-0.994-0.201-1.353-0.562l-18.065-18.065c-0.747-0.746-0.747-1.959,0-2.705
		l86.605-86.607c0.373-0.373,0.863-0.561,1.353-0.561c0.486,0,0.972,0.184,1.344,0.553l27.566,27.208
		c0.363,0.358,0.568,0.847,0.569,1.356c0.001,0.509-0.2,0.998-0.56,1.356l-77.463,77.466c-0.359,0.358-0.845,0.561-1.353,0.561
		H-1915.578L-1915.578,942.662z"/>
	<polygon fill="#40C9E7" points="-1839.582,853.712 -1857.221,836.076 -1912.854,892.857 -1895.789,909.919 	"/>
	<polygon fill="#059BBF" points="-1839.582,853.712 -1895.789,909.919 -1912.854,892.857 -1876.719,928.99 -1820.51,872.784 	"/>
</g>
<g>
	<polygon fill="#FFFFFF" points="-1824.576,936.985 -1827.901,933.221 -1872.432,933.221 -1875.758,936.985 -1889.305,936.985 
		-1889.305,940.75 -1819.457,940.75 -1819.457,936.985 	"/>
	<polygon fill="#FFFFFF" points="-1847.038,836.076 -1933.643,922.683 -1920.668,935.658 -1915.578,940.75 -1896.934,940.75 
		-1819.471,863.285 	"/>
	<path fill="#FFFFFF" d="M-1915.578,942.662c-0.507,0-0.994-0.201-1.353-0.562l-18.065-18.065c-0.747-0.746-0.747-1.959,0-2.705
		l86.605-86.607c0.373-0.373,0.863-0.561,1.353-0.561c0.486,0,0.972,0.184,1.344,0.553l27.566,27.208
		c0.363,0.358,0.568,0.847,0.569,1.356c0.001,0.509-0.2,0.998-0.56,1.356l-77.463,77.466c-0.359,0.358-0.845,0.561-1.353,0.561
		H-1915.578L-1915.578,942.662z"/>
	<polygon fill="#40C9E7" points="-1839.582,853.712 -1857.221,836.076 -1912.854,892.857 -1895.789,909.919 	"/>
	<polygon fill="#059BBF" points="-1839.582,853.712 -1895.789,909.919 -1912.854,892.857 -1876.719,928.99 -1820.51,872.784 	"/>
</g>
<polygon fill="#FFFFFF" points="30.098,30.979 29.193,29.958 17.119,29.958 16.217,30.979 12.543,30.979 12.543,32 31.484,32 
	31.484,30.979 "/>
<path fill="#EDEEEF" d="M5.418,32c-0.137,0-0.27-0.055-0.367-0.15L0.152,26.95c-0.203-0.202-0.203-0.531,0-0.733L23.639,2.729
	c0.102-0.102,0.233-0.153,0.366-0.153c0.134,0,0.265,0.05,0.365,0.15l7.476,7.379C31.943,10.201,32,10.334,32,10.473
	c0,0.137-0.055,0.27-0.15,0.368L10.841,31.85C10.744,31.945,10.612,32,10.474,32H5.418z"/>
<path fill="#C2C3C4" d="M5.418,32c-0.137,0-0.27-0.055-0.367-0.15L0.152,26.95c-0.203-0.202-0.203-0.531,0-0.733L23.639,2.729
	c0.102-0.102,0.233-0.153,0.366-0.153c0.134,0,0.265,0.05,0.365,0.15l7.476,7.379C31.943,10.201,32,10.334,32,10.473
	c0,0.137-0.055,0.27-0.15,0.368L10.841,31.85C10.744,31.945,10.612,32,10.474,32H5.418z"/>
<path fill="#B1B1B2" d="M27.844,6.154l-1.816,1.723L10.785,23.121L3.62,30.286l-0.122,0.011l1.552,1.553
	C5.148,31.945,5.281,32,5.418,32h5.056c0.138,0,0.27-0.055,0.367-0.15L31.85,10.841C31.945,10.743,32,10.61,32,10.473
	c0-0.139-0.057-0.272-0.154-0.368L27.844,6.154z"/>
<linearGradient id="SVGID_1_" gradientUnits="userSpaceOnUse" x1="3.5781" y1="30.9531" x2="29.3475" y2="5.1837">
	<stop  offset="0" style="stop-color:#FCFCFD"/>
	<stop  offset="1" style="stop-color:#EDEEEF"/>
</linearGradient>
<polygon fill="url(#SVGID_1_)" points="5.418,31.5 0.505,26.597 23.992,3.083 31.494,10.461 10.487,31.496 10.474,31.5 "/>
<polygon fill="#21B2D1" points="26.027,7.877 21.244,3.095 6.157,18.494 10.785,23.121 "/>
<polyline fill="#0484AB" points="15.957,28.293 16.013,28.237 10.84,23.064 10.785,23.121 "/>
<polygon opacity="0.5" fill="#C2C3C4" points="10.828,23.078 7.049,19.301 5.565,20.809 9.332,24.574 13.441,28.684 14.938,27.188 
	"/>
<polygon opacity="0.5" fill="#C2C3C4" points="10.828,23.078 7.055,19.306 6.097,20.277 9.863,24.043 13.973,28.152 14.938,27.188 
	"/>
<polygon opacity="0.5" fill="#C2C3C4" points="10.813,23.094 7.044,19.326 6.534,19.84 10.301,23.605 14.41,27.715 14.922,27.203 
	"/>
<polygon fill="#21B2D1" points="26.027,7.877 21.244,3.095 6.157,18.494 10.785,23.121 "/>
<polyline fill="#0484AB" points="15.957,28.293 31.2,13.05 26.027,7.877 10.785,23.121 "/>
<rect x="-71.5" y="1.5" fill="#545454" width="57.667" height="57.667"/>
</svg>
